# xmcd
#
# Track frame offsets:
# 150
# 11273
# 24030
# 34823
# 47106
# 59457
# 68617
# 73295
# 82645
# 87902
# 100577
# 118180
# 131736
#
# Disc length: 1905 seconds
#
#
# Revision: 0
# Processed by: cddbd v1.5.2PL0 Copyright (c) Steve Scherf et al.
# Submitted via: FreeRIP 2.942 
#
DISCID=9e076f0d
DTITLE=Shawn - Good morning blues
DYEAR=1900
DGENRE=Blues
TTITLE0=01-Good morning blues
TTITLE1=02-Steamroller blues
TTITLE2=03-Sittin on the top of the world
TTITLE3=04-If I were a carpenter
TTITLE4=05-Deep driver blues
TTITLE5=06-How long blues
TTITLE6=07-Police dog blues
TTITLE7=08-Scarborough fair
TTITLE8=09-Hungarian wine
TTITLE9=10-Travelers blues
TTITLE10=11-House of the risin sun
TTITLE11=12-Time in the bottle
TTITLE12=13-Missisippi blues
EXTD=
EXTT0=
EXTT1=
EXTT2=
EXTT3=
EXTT4=
EXTT5=
EXTT6=
EXTT7=
EXTT8=
EXTT9=
EXTT10=
EXTT11=
EXTT12=
PLAYORDER=
